# xmcd CD database file
#
# Track frame offsets:
#	150
#	25335
#	49448
#	83181
#	98895
#	123478
#	140547
#	159623
#	182685
#	206825
#	236041
#
# Disc length: 3460 seconds
#
# Revision: 0
# Processed by: cddbd v1.5.1PL0 Copyright (c) Steve Scherf et al.
# Submitted via: CDex 1.51
#
DISCID=9e0d820b
DTITLE=Tim McDonald - Tim McDonald
DYEAR=2004
DGENRE=Jazz
TTITLE0=Footprints
TTITLE1=You and The Night and The Music
TTITLE2=Bye Bye Blackbird
TTITLE3=So What
TTITLE4=Fur Elise
TTITLE5=Don't Know Why
TTITLE6=Linus and Lucy
TTITLE7=Waltz For Frank
TTITLE8=Rajin' Cajun
TTITLE9=Three Blind Mice
TTITLE10=Caught Leon Steelin'
EXTD=YEAR: 2004
EXTT0=
EXTT1=
EXTT2=
EXTT3=
EXTT4=
EXTT5=
EXTT6=
EXTT7=
EXTT8=
EXTT9=
EXTT10=
PLAYORDER=
